<svg width="432" height="144" viewBox="0 0 432 144" fill="none" xmlns="http://www.w3.org/2000/svg">
<g opacity="0.02">
<path d="M174.455 0H233.89L156.07 143.016L124.818 86.3588L174.455 0Z" fill="white"/>
<path d="M233.89 0L254.46 36.3449L223.848 90.1125L203.665 55.5406L174.455 0H233.89Z" fill="white"/>
<path d="M70.1946 13.4501L100.221 68.1261L59.4795 143.016H0L70.1946 13.4501Z" fill="white"/>
<path d="M77.8643 0H137.3L186.318 87.6502L156.07 143.016L77.8643 0Z" fill="white"/>
<path d="M267.061 13.4501L297.408 66.9223L256.777 143.016L223.848 90.1125L267.061 13.4501Z" fill="white"/>
<path d="M372.977 0H432.413L364.701 124.444L342.619 52.8265L372.977 0Z" fill="white"/>
<path d="M275.162 0H334.597L384.024 88.9306L354.427 142.742L275.162 0Z" fill="white"/>
</g>
</svg>
