<svg width="64" height="64" viewBox="0 0 64 64" fill="none" xmlns="http://www.w3.org/2000/svg">
<rect width="64" height="64" fill="white"/>
<path d="M26.2069 22H34.4539L23.6559 41.7529L19.3196 33.9276L26.2069 22Z" fill="url(#paint0_linear_77_244)"/>
<path d="M34.4541 22L37.3082 27.0199L33.0607 34.4461L30.2601 29.6711L26.207 22H34.4541Z" fill="url(#paint1_linear_77_244)"/>
<path d="M11.74 23.8577L15.9063 31.4094L10.2532 41.7529H2L11.74 23.8577Z" fill="url(#paint2_linear_77_244)"/>
<path d="M12.804 22H21.051L27.8526 34.106L23.6556 41.7529L12.804 22Z" fill="url(#paint3_linear_77_244)"/>
<path d="M39.057 23.8577L43.2678 31.2431L37.6299 41.7529L33.0608 34.4461L39.057 23.8577Z" fill="url(#paint4_linear_77_244)"/>
<path d="M53.7529 22H61.9999L52.6045 39.1878L49.5405 29.2963L53.7529 22Z" fill="url(#paint5_linear_77_244)"/>
<path d="M40.1807 22H48.4277L55.2859 34.2829L51.1793 41.7151L40.1807 22Z" fill="url(#paint6_linear_77_244)"/>
<defs>
<linearGradient id="paint0_linear_77_244" x1="25.3252" y1="31.5498" x2="32.8059" y2="25.1912" gradientUnits="userSpaceOnUse">
<stop stop-color="#0B0D17"/>
<stop offset="0.4209" stop-color="#112D48"/>
<stop offset="0.801" stop-color="#15466E"/>
<stop offset="1" stop-color="#17507D"/>
</linearGradient>
<linearGradient id="paint1_linear_77_244" x1="36.3872" y1="29.2721" x2="25.1178" y2="24.6598" gradientUnits="userSpaceOnUse">
<stop stop-color="#0F3D60"/>
<stop offset="1" stop-color="#E7613A"/>
</linearGradient>
<linearGradient id="paint2_linear_77_244" x1="4.82296" y1="43.3614" x2="14.9092" y2="25.6644" gradientUnits="userSpaceOnUse">
<stop stop-color="#0B0D17"/>
<stop offset="0.436" stop-color="#112F4A"/>
<stop offset="0.8048" stop-color="#15476F"/>
<stop offset="1" stop-color="#17507D"/>
</linearGradient>
<linearGradient id="paint3_linear_77_244" x1="27.8653" y1="34.0751" x2="10.7314" y2="27.0626" gradientUnits="userSpaceOnUse">
<stop stop-color="#0F3D60"/>
<stop offset="1" stop-color="#E7613A"/>
</linearGradient>
<linearGradient id="paint4_linear_77_244" x1="34.486" y1="26.4634" x2="41.8345" y2="39.3567" gradientUnits="userSpaceOnUse">
<stop stop-color="#0B0D17"/>
<stop offset="0.436" stop-color="#112F4A"/>
<stop offset="0.8048" stop-color="#15476F"/>
<stop offset="1" stop-color="#17507D"/>
</linearGradient>
<linearGradient id="paint5_linear_77_244" x1="49.8735" y1="31.7818" x2="63.724" y2="26.6751" gradientUnits="userSpaceOnUse">
<stop stop-color="#0B0D17"/>
<stop offset="0.4287" stop-color="#112E49"/>
<stop offset="0.803" stop-color="#15476F"/>
<stop offset="1" stop-color="#17507D"/>
</linearGradient>
<linearGradient id="paint6_linear_77_244" x1="55.3702" y1="34.0779" x2="38.1263" y2="27.0204" gradientUnits="userSpaceOnUse">
<stop stop-color="#0F3D60"/>
<stop offset="1" stop-color="#E7613A"/>
</linearGradient>
</defs>
</svg>
