<svg width="288" height="96" viewBox="0 0 288 96" fill="none" xmlns="http://www.w3.org/2000/svg">
<g opacity="0.02">
<path d="M116.359 0H156.001L104.097 95.3893L83.2524 57.6L116.359 0Z" fill="white"/>
<path d="M156.001 0L169.72 24.2415L149.303 60.1037L135.841 37.0447L116.358 0H156.001Z" fill="white"/>
<path d="M46.8187 8.97099L66.8461 45.4391L39.6719 95.3892H0L46.8187 8.97099Z" fill="white"/>
<path d="M51.9341 0H91.5766L124.271 58.4613L104.096 95.3893L51.9341 0Z" fill="white"/>
<path d="M178.126 8.97099L198.367 44.6361L171.266 95.3892L149.303 60.1037L178.126 8.97099Z" fill="white"/>
<path d="M248.77 0H288.413L243.25 83.0021L228.522 35.2345L248.77 0Z" fill="white"/>
<path d="M183.529 0H223.171L256.138 59.3153L236.398 95.2068L183.529 0Z" fill="white"/>
</g>
</svg>
