<?xml version="1.0" encoding="utf-8"?>
<!-- Generator: Adobe Illustrator 26.0.2, SVG Export Plug-In . SVG Version: 6.00 Build 0)  -->
<svg version="1.1" id="Layer_1" xmlns="http://www.w3.org/2000/svg" xmlns:xlink="http://www.w3.org/1999/xlink" x="0px" y="0px"
	 viewBox="0 0 425.2 283.46" style="enable-background:new 0 0 425.2 283.46;" xml:space="preserve">
<style type="text/css">
	.st0{fill:url(#SVGID_1_);}
	.st1{fill:url(#SVGID_00000152232988828564925970000001526913702913553041_);}
	.st2{fill:url(#SVGID_00000077297178192464059960000010685276025595167670_);}
	.st3{fill:url(#SVGID_00000167361166404808703460000004801112724581443508_);}
	.st4{fill:url(#SVGID_00000093856630830105728080000008914384779606149278_);}
	.st5{fill:url(#SVGID_00000176726534925228531330000018050148125334054069_);}
	.st6{fill:url(#SVGID_00000067227547967349158080000012879963510772906625_);}
	.st7{fill:none;stroke:#FFF100;stroke-width:0.25;stroke-miterlimit:10;}
	.st8{fill:#10111A;}
</style>
<g>
	<g>
		<linearGradient id="SVGID_1_" gradientUnits="userSpaceOnUse" x1="169.002" y1="83.659" x2="218.3849" y2="42.2218">
			<stop  offset="0" style="stop-color:#0B0D17"/>
			<stop  offset="0.4209" style="stop-color:#112D48"/>
			<stop  offset="0.801" style="stop-color:#15466E"/>
			<stop  offset="1" style="stop-color:#17507D"/>
		</linearGradient>
		<polygon class="st0" points="174.76,20.48 228.62,20.48 158.1,151.16 129.78,99.39 		"/>
		
			<linearGradient id="SVGID_00000119818180324311165690000004364419299960091013_" gradientUnits="userSpaceOnUse" x1="241.2447" y1="68.5903" x2="167.3761" y2="38.7454">
			<stop  offset="0" style="stop-color:#0F3D60"/>
			<stop  offset="1" style="stop-color:#E7613A"/>
		</linearGradient>
		<polygon style="fill:url(#SVGID_00000119818180324311165690000004364419299960091013_);" points="228.62,20.48 247.26,53.69 
			219.52,102.82 201.23,71.23 174.76,20.48 		"/>
		
			<linearGradient id="SVGID_00000003806344355306649440000000818219169318599353_" gradientUnits="userSpaceOnUse" x1="35.1063" y1="161.8012" x2="102.2706" y2="45.4692">
			<stop  offset="0" style="stop-color:#0B0D17"/>
			<stop  offset="0.436" style="stop-color:#112F4A"/>
			<stop  offset="0.8048" style="stop-color:#15476F"/>
			<stop  offset="1" style="stop-color:#17507D"/>
		</linearGradient>
		<polygon style="fill:url(#SVGID_00000003806344355306649440000000818219169318599353_);" points="80.28,32.77 107.49,82.73 
			70.57,151.16 16.67,151.16 		"/>
		
			<linearGradient id="SVGID_00000096049381796062099380000010711214928013370552_" gradientUnits="userSpaceOnUse" x1="185.5932" y1="100.3657" x2="73.2835" y2="54.9896">
			<stop  offset="0" style="stop-color:#0F3D60"/>
			<stop  offset="1" style="stop-color:#E7613A"/>
		</linearGradient>
		<polygon style="fill:url(#SVGID_00000096049381796062099380000010711214928013370552_);" points="87.23,20.48 141.09,20.48 
			185.51,100.57 158.1,151.16 		"/>
		
			<linearGradient id="SVGID_00000154407240998905356810000017242590436102277567_" gradientUnits="userSpaceOnUse" x1="228.828" y1="50.0087" x2="277.7615" y2="134.7639">
			<stop  offset="0" style="stop-color:#0B0D17"/>
			<stop  offset="0.436" style="stop-color:#112F4A"/>
			<stop  offset="0.8048" style="stop-color:#15476F"/>
			<stop  offset="1" style="stop-color:#17507D"/>
		</linearGradient>
		<polygon style="fill:url(#SVGID_00000154407240998905356810000017242590436102277567_);" points="258.68,32.77 286.18,81.63 
			249.36,151.16 219.52,102.82 		"/>
		
			<linearGradient id="SVGID_00000071558795980515878530000012260772888178299541_" gradientUnits="userSpaceOnUse" x1="329.3247" y1="85.1939" x2="420.0565" y2="52.1702">
			<stop  offset="0" style="stop-color:#0B0D17"/>
			<stop  offset="0.4287" style="stop-color:#112E49"/>
			<stop  offset="0.803" style="stop-color:#15476F"/>
			<stop  offset="1" style="stop-color:#17507D"/>
		</linearGradient>
		<polygon style="fill:url(#SVGID_00000071558795980515878530000012260772888178299541_);" points="354.66,20.48 408.52,20.48 
			347.16,134.19 327.15,68.75 		"/>
		
			<linearGradient id="SVGID_00000036946280875677200400000014964857758958035849_" gradientUnits="userSpaceOnUse" x1="365.2201" y1="100.3843" x2="252.1896" y2="54.717">
			<stop  offset="0" style="stop-color:#0F3D60"/>
			<stop  offset="1" style="stop-color:#E7613A"/>
		</linearGradient>
		<polygon style="fill:url(#SVGID_00000036946280875677200400000014964857758958035849_);" points="266.02,20.48 319.88,20.48 
			364.67,101.74 337.85,150.91 		"/>
		<path class="st7" d="M65.28,116.27"/>
		<path class="st7" d="M119.14,116.27"/>
		<path class="st7" d="M337.02,51.18"/>
		<path class="st7" d="M364.23,101.14"/>
	</g>
	<g>
		<path class="st8" d="M49.36,198.89h8.54l-0.07,6.53v36.6l0.07,6.53h-7.57l-25.69-35H24.5l0.14,4.38v24.1l0.07,6.53h-8.54
			l0.07-6.53v-36.6l-0.07-6.53h8.34l24.93,33.82h0.14l-0.14-4.37v-22.92L49.36,198.89z"/>
		<path class="st8" d="M64.83,198.89H74.9l9.1,35.69h0.14l10.35-35.69h7.78l10.28,35.69h0.21l8.82-35.69h9.38l-14.17,49.65h-8.19
			L97.89,212.5h-0.14l-10.62,36.04h-8.06L64.83,198.89z"/>
		<path class="st8" d="M171.06,198.89h8.54l-0.07,6.53v36.6l0.07,6.53h-7.57l-25.69-35h-0.14l0.14,4.38v24.1l0.07,6.53h-8.54
			l0.07-6.53v-36.6l-0.07-6.53h8.34l24.93,33.82h0.14l-0.14-4.37v-22.92L171.06,198.89z"/>
		<path class="st8" d="M251.09,248.54h-6.18l-0.28-6.53h-0.14c-2.99,5-7.85,7.84-15.42,7.84c-13.75,0-23.75-8.89-23.75-25.55
			c0-15.28,8.68-26.73,24.37-26.73c10.97,0,17.91,5.76,20.97,14.3l-8.4,2.29c-1.39-4.17-5.42-9.44-12.64-9.44
			c-7.99,0-14.44,6.18-14.44,19.24c0,13.82,7.57,18.75,14.72,18.75c7.15,0,12.84-4.86,12.91-12.57h-12.57v-6.73h20.9l-0.07,6.53
			V248.54z"/>
		<path class="st8" d="M260.25,242.29v-22.57l-0.07-6.25h8.05v10.42h0.14c2.85-8.06,7.78-11.46,12.64-11.46
			c0.56,0,1.11,0.07,1.46,0.14v7.85c-0.63-0.14-1.32-0.21-2.02-0.21c-6.53,0-11.04,8.05-11.59,14.17v7.92l0.07,6.25h-8.75
			L260.25,242.29z"/>
		<path class="st8" d="M285.59,231.04c0-10,7.29-18.68,18.61-18.68c11.32,0,18.61,8.68,18.61,18.68c0,9.86-7.29,18.54-18.61,18.54
			C292.88,249.58,285.59,240.9,285.59,231.04z M313.78,231.04c0-8.26-4.24-12.43-9.58-12.43c-5.42,0-9.59,4.17-9.59,12.43
			c0,8.19,4.17,12.36,9.59,12.36C309.54,243.4,313.78,239.23,313.78,231.04z"/>
		<path class="st8" d="M338.9,213.47l-0.07,6.25v15.14c0,5.28,1.94,7.71,5.9,7.71c4.03,0,7.85-2.5,10.21-6.18v-16.67l-0.07-6.25
			h8.75l-0.07,6.25v22.57l0.07,6.25h-8.4v-6.04h-0.14c-2.92,3.96-7.15,7.09-13.05,7.09c-7.22,0-11.81-4.44-11.81-13.26v-16.6
			l-0.07-6.25H338.9z"/>
		<path class="st8" d="M382.29,243.47h-0.14v13.26l0.07,6.25h-8.75l0.07-6.25v-37.01l-0.07-6.25h8.4v5.63h0.14
			c2.02-3.33,5.35-6.67,11.39-6.67c8.75,0,15.63,6.73,15.63,18.4c0,11.74-6.88,18.75-16.11,18.75
			C387.36,249.58,384.31,246.8,382.29,243.47z M381.94,230.83c0,9.31,4.72,12.57,9.38,12.57c5.83,0,8.61-5.21,8.61-12.57
			c0-7.71-3.06-12.22-8.68-12.22C386.39,218.61,381.94,221.87,381.94,230.83z"/>
	</g>
</g>
</svg>
